<?xml version="1.0" encoding="utf-8"?>
<!-- Generator: Adobe Illustrator 19.0.0, SVG Export Plug-In . SVG Version: 6.00 Build 0)  -->
<svg version="1.1" id="Layer_1" xmlns="http://www.w3.org/2000/svg" xmlns:xlink="http://www.w3.org/1999/xlink" x="0px" y="0px"
	 viewBox="0 0 463.5 463.3" style="enable-background:new 0 0 463.5 463.3;" xml:space="preserve">
<style type="text/css">
	.st0{fill:#FFFFFF;}
</style>
<g>
	<path class="st0" d="M240.1,0c0.6,0.1,1.3,0.3,1.9,0.3c58.1,2.8,108.2,24.5,150.5,64.4c0.5,0.4,1,0.8,1.6,1.3
		c-29.9,51-59.6,101.7-89.5,152.7c-41.2-71.1-82.2-142-123.3-213c2.2-0.5,4.1-0.9,6-1.3c11.4-2.2,23-3.7,34.6-4
		c0.7,0,1.4-0.2,2.1-0.3C229.3,0,234.7,0,240.1,0z"/>
	<path class="st0" d="M0,223.5c0.2-1.6,0.6-3.3,0.7-4.9c0.7-13.1,2.5-26,5.5-38.7c0.2-0.9,0.4-1.7,0.6-2.6
		c1.5-0.4,174.3-0.5,176.6-0.1C143,247.9,102.8,318.5,62.4,389.3c-0.5-0.5-1-0.9-1.3-1.3c-27-29.6-45.2-63.8-54.6-102.8
		c-3.2-13.3-5.2-26.9-5.9-40.6c-0.1-1.5-0.4-3-0.7-4.5C0,234.6,0,229,0,223.5z"/>
	<path class="st0" d="M167.2,9.2c29.7,51.3,59.3,102.4,89,153.7c-82,0-163.6,0-245.1,0c-0.1-5.5,13.7-36.6,23.1-51.9
		c10-16.3,21.8-31.2,35.4-44.6c13.6-13.4,28.7-25,45.2-34.7C131.2,22.1,148.6,14.6,167.2,9.2z"/>
	<path class="st0" d="M404,76.7c27.2,30.5,45.4,65.5,54.1,105.3c7.8,35.8,7,71.5-1.8,107c-59,0-117.8,0-176.6,0
		C280.2,287.5,401,81,404,76.7z"/>
	<path class="st0" d="M294.4,454.7c-28.8-50.6-57.5-101-86.4-151.6c81.5,0,162.7,0,244.2,0c-11.3,34.3-29.4,64.3-54.5,90.1
		C368.8,422.8,334.3,443.3,294.4,454.7z"/>
	<path class="st0" d="M72.5,399.7c29.1-51.1,58.1-101.9,87-152.6c0.2,0,0.3,0,0.3,0c0.1,0,0.1,0,0.2,0.1c0.6,1,1.3,2.1,1.9,3.1
		c39.4,69.2,78.9,138.4,118.4,207.8c-33.9,7.1-67.5,6.9-101-0.9C138.6,447.7,103.1,428.4,72.5,399.7z"/>
</g>
</svg>
